<?xml version="1.0" encoding="UTF-8"?>
<svg xmlns="http://www.w3.org/2000/svg" xmlns:xlink="http://www.w3.org/1999/xlink" viewBox="0 0 64 64" width="64px" height="64px">
<g id="surface81057788">
<path style=" stroke:none;fill-rule:nonzero;fill:rgb(6.666667%,65.882355%,17.647059%);fill-opacity:1;" d="M 40 47 L 41 48 L 41 49 L 43 50 L 44 49 L 46 50 L 48 49 L 48 48 L 50 48 L 49 46 L 51 44 L 49 42 L 50 41 L 50 39 L 49 38 L 47 38 L 46 37 L 44.984375 36.957031 L 44.261719 37.957031 L 42 37 L 38 39 L 38 42 L 38.738281 43.058594 L 38 44.089844 L 38 46 Z M 40 47 "/>
<path style=" stroke:none;fill-rule:nonzero;fill:rgb(21.960784%,53.725493%,27.058825%);fill-opacity:1;" d="M 38 39 L 38 42 L 38.738281 43.058594 L 38 44.089844 L 38 46 L 40 47 L 41 48 L 41 49 L 43 50 L 44 49 L 46 50 L 48 49 L 48 48 L 49.375 48 L 49.332031 45.667969 L 48 45 L 47 46 L 45 45 L 45 44 L 44 43 L 42 42 L 42 40.089844 L 42.738281 39.058594 L 42 38 L 42 37 Z M 38 39 "/>
<path style=" stroke:none;fill-rule:nonzero;fill:rgb(6.666667%,65.882355%,17.647059%);fill-opacity:1;" d="M 25 44 L 26 43 L 26 41.089844 L 25 40 L 26 39 L 26 36 L 22 34 L 20.089844 35.183594 L 19.277344 34 L 18.191406 34 L 18 35 L 15 35 L 14 36 L 14 37 L 15 38 L 13 41 L 15 43 L 14 45 L 16 45 L 16 46 L 18 47 L 20 46 L 21 47 L 23 46 L 23 44 Z M 25 44 "/>
<path style=" stroke:none;fill-rule:nonzero;fill:rgb(21.960784%,53.725493%,27.058825%);fill-opacity:1;" d="M 26 36 L 22 34 L 22 36 L 21 37 L 22 38.089844 L 22 40 L 21 41 L 19 41 L 19 43 L 17 44 L 16 43 L 14.667969 43.667969 L 14 45 L 16 45 L 16 46 L 18 47 L 20 46 L 21 47 L 23 46 L 23 44 L 25 44 L 26 43 L 26 41.089844 L 25 40 L 26 39 Z M 26 36 "/>
<path style=" stroke:none;fill-rule:nonzero;fill:rgb(53.725493%,38.431373%,19.607843%);fill-opacity:1;" d="M 30 28 L 30 51 C 30 53.210938 28.210938 55 26 55 L 25 55 L 25 59 L 39 59 L 39 55 L 38 55 C 35.789062 55 34 53.210938 34 51 L 34 28 Z M 30 28 "/>
<path style=" stroke:none;fill-rule:nonzero;fill:rgb(49.019608%,35.686275%,19.607843%);fill-opacity:1;" d="M 26 56 L 38 56 L 38 58 L 26 58 Z M 26 56 "/>
<path style=" stroke:none;fill-rule:nonzero;fill:rgb(6.666667%,65.882355%,17.647059%);fill-opacity:1;" d="M 35 28 L 36 28 L 37 29 L 38 28 L 40 28 L 41 29 L 42 29 L 43 27 L 44 27 L 45.457031 26.148438 L 46 25 L 45 24 L 46 24 L 47 23 L 48 23 L 48 17 L 49 16 L 49 15 L 48 15 L 47.980469 13.867188 L 46 14 L 46 12 L 45 12 L 45 11 L 44 11 L 44 10 L 43 10 L 43 9 L 41 8 L 40 7 L 39 8 L 38 8 L 38 7 L 36 7 L 36 5 L 34 5 L 34 6 L 33 6 L 32 5 L 31 5 L 31 6 L 29 6 L 29 7 L 27 7 L 27 6 L 24 6 L 23 7 L 22 7 L 20 9 L 19 9 L 19.644531 10.648438 L 21 11 L 21 13 L 20 13 L 19.804688 14.402344 L 18.445312 14.402344 L 17 16 L 17 17 L 19 18 L 19 20 L 17 20 L 17 23 L 18 23 L 18 24 L 19 25 L 19 26 L 21 27 L 21 26 L 23 27 L 23 29 L 25 30 L 25 29 L 25.488281 28.953125 L 26 28 L 27 28 L 27 29 L 28 30 L 33 30 Z M 35 28 "/>
<path style=" stroke:none;fill-rule:nonzero;fill:rgb(22.352941%,78.431374%,24.313726%);fill-opacity:1;" d="M 38 8 L 38 7 L 36 7 L 36 5 L 34 5 L 34 6 L 33 6 L 32 5 L 31 5 L 31 6 L 29 6 L 29 7 L 27 7 L 27 6 L 24 6 L 23 7 L 22 7 L 20 9 L 19 9 L 19.644531 10.648438 L 21 11 L 21 13 L 20 13 L 19.804688 14.402344 L 18.445312 14.402344 L 17 16 L 17 17 L 19 18 L 21 18 C 22.65625 18 24 16.65625 24 15 L 25 14 L 25 12 L 26 12 L 27 11 L 28 11 L 29 10 L 32 10 L 33 11 L 36 11 C 37.65625 11 39 9.65625 39 8 Z M 38 8 "/>
<path style=" stroke:none;fill-rule:nonzero;fill:rgb(21.960784%,53.725493%,27.058825%);fill-opacity:1;" d="M 48 15 L 48 22 L 46 24 L 46 25.75 L 41 29 L 39 28 L 35 28 L 33 30 L 28 30 L 28 28 C 28 26.894531 28.894531 26 30 26 L 32 24 L 33 24 L 34 25 L 35 24 L 37 24 L 38 25 L 39 25 L 40 23 L 41 23 L 42.457031 22.148438 L 43 21 L 42 20 L 43 20 L 44 19 L 45 19 L 45 17 C 45 15.894531 45.894531 15 47 15 Z M 48 15 "/>
<path style=" stroke:none;fill-rule:nonzero;fill:rgb(84.705883%,84.705883%,84.705883%);fill-opacity:1;" d="M 39 60 L 25 60 C 24.445312 60 24 59.550781 24 59 L 24 55 C 24 54.449219 24.445312 54 25 54 L 26 54 C 27.652344 54 29 52.652344 29 51 L 29 30 L 31 30 L 31 51 C 31 53.757812 28.757812 56 26 56 L 26 58 L 38 58 L 38 56 C 35.242188 56 33 53.757812 33 51 L 33 29 L 35 29 L 35 51 C 35 52.652344 36.347656 54 38 54 L 39 54 C 39.554688 54 40 54.449219 40 55 L 40 59 C 40 59.550781 39.554688 60 39 60 Z M 39 60 "/>
<path style=" stroke:none;fill-rule:nonzero;fill:rgb(84.705883%,84.705883%,84.705883%);fill-opacity:1;" d="M 25 31 C 24.847656 31 24.695312 30.964844 24.554688 30.894531 L 22.554688 29.894531 C 22.214844 29.726562 22 29.378906 22 29 L 22 27.617188 L 21.84375 27.539062 C 21.761719 27.664062 21.65625 27.769531 21.527344 27.851562 C 21.230469 28.03125 20.863281 28.050781 20.554688 27.894531 L 18.554688 26.894531 C 18.214844 26.726562 18 26.378906 18 26 L 18 25.414062 L 17.292969 24.707031 C 17.105469 24.519531 17 24.265625 17 24 C 16.445312 24 16 23.550781 16 23 L 16 20 C 16 19.449219 16.445312 19 17 19 L 17.882812 19 L 17.84375 18.648438 L 16.496094 17.863281 C 16.1875 17.683594 16 17.355469 16 17 L 16 16 C 16 15.753906 16.09375 15.511719 16.257812 15.328125 L 17.703125 13.730469 C 17.894531 13.523438 18.164062 13.402344 18.445312 13.402344 L 18.933594 13.402344 L 19.007812 12.859375 C 19.078125 12.367188 19.503906 12 20 12 L 20 11.773438 L 19.394531 11.617188 C 19.082031 11.535156 18.828125 11.3125 18.710938 11.011719 L 18.066406 9.363281 C 17.949219 9.054688 17.988281 8.707031 18.175781 8.4375 C 18.359375 8.164062 18.671875 8 19 8 L 19.585938 8 L 21.292969 6.292969 C 21.480469 6.105469 21.734375 6 22 6 L 22.585938 6 L 23.292969 5.292969 C 23.480469 5.105469 23.734375 5 24 5 L 27 5 C 27.554688 5 28 5.449219 28 6 C 28 5.449219 28.445312 5 29 5 L 30 5 C 30 4.449219 30.445312 4 31 4 L 32 4 C 32.265625 4 32.519531 4.105469 32.707031 4.292969 L 33.0625 4.648438 C 33.203125 4.269531 33.570312 4 34 4 L 36 4 C 36.554688 4 37 4.449219 37 5 L 37 6 L 38 6 C 38.429688 6 38.796875 6.269531 38.9375 6.648438 L 39.292969 6.292969 C 39.683594 5.902344 40.316406 5.902344 40.707031 6.292969 L 41.59375 7.179688 L 43.445312 8.105469 C 43.785156 8.273438 44 8.621094 44 9 C 44.554688 9 45 9.449219 45 10 C 45.554688 10 46 10.449219 46 11 C 46.554688 11 47 11.449219 47 12 L 47 12.929688 L 47.914062 12.871094 C 48.183594 12.847656 48.457031 12.945312 48.65625 13.132812 C 48.859375 13.316406 48.976562 13.574219 48.980469 13.851562 L 49 14 C 49.554688 14 50 14.449219 50 15 L 50 16 C 50 16.265625 49.894531 16.519531 49.707031 16.707031 L 49 17.414062 L 49 23 C 49 23.550781 48.554688 24 48 24 L 47.414062 24 L 46.882812 24.53125 C 47.027344 24.804688 47.039062 25.136719 46.902344 25.425781 L 46.359375 26.574219 C 46.273438 26.757812 46.136719 26.910156 45.960938 27.011719 L 44.503906 27.863281 C 44.351562 27.953125 44.175781 28 44 28 L 43.617188 28 L 42.894531 29.445312 C 42.726562 29.785156 42.378906 30 42 30 L 41 30 C 40.734375 30 40.480469 29.894531 40.292969 29.707031 L 39.585938 29 L 38.414062 29 L 37.707031 29.707031 C 37.316406 30.097656 36.683594 30.097656 36.292969 29.707031 L 35.585938 29 L 35.414062 29 L 33.707031 30.707031 C 33.519531 30.894531 33.265625 31 33 31 L 28 31 C 27.734375 31 27.480469 30.894531 27.292969 30.707031 L 26.292969 29.707031 C 26.269531 29.683594 26.246094 29.65625 26.222656 29.628906 C 26.160156 29.699219 26.082031 29.761719 26 29.8125 L 26 30 C 26 30.347656 25.820312 30.667969 25.523438 30.851562 C 25.363281 30.949219 25.183594 31 25 31 Z M 28.414062 29 L 32.585938 29 L 34.292969 27.292969 C 34.480469 27.105469 34.734375 27 35 27 L 36 27 C 36.265625 27 36.519531 27.105469 36.707031 27.292969 L 37 27.585938 L 37.292969 27.292969 C 37.480469 27.105469 37.734375 27 38 27 L 40 27 C 40.265625 27 40.519531 27.105469 40.707031 27.292969 L 41.394531 27.980469 L 42.105469 26.554688 C 42.273438 26.214844 42.621094 26 43 26 L 43.730469 26 L 44.683594 25.441406 L 44.792969 25.210938 L 44.292969 24.707031 C 44.007812 24.421875 43.921875 23.992188 44.074219 23.617188 C 44.230469 23.242188 44.597656 23 45 23 L 45.585938 23 L 46.292969 22.292969 C 46.480469 22.105469 46.734375 22 47 22 L 47 17 C 47 16.734375 47.105469 16.480469 47.292969 16.292969 L 47.648438 15.9375 C 47.273438 15.796875 47.007812 15.441406 47 15.019531 L 47 14.9375 L 46.066406 14.996094 C 45.792969 15.015625 45.519531 14.921875 45.316406 14.730469 C 45.113281 14.539062 45 14.277344 45 14 L 45 13 C 44.445312 13 44 12.550781 44 12 C 43.445312 12 43 11.550781 43 11 C 42.445312 11 42 10.550781 42 10 L 42 9.617188 L 40.554688 8.894531 C 40.457031 8.847656 40.367188 8.78125 40.292969 8.707031 L 40 8.414062 L 39.707031 8.707031 C 39.519531 8.894531 39.265625 9 39 9 L 38 9 C 37.445312 9 37 8.550781 37 8 L 36 8 C 35.445312 8 35 7.550781 35 7 L 35 6 C 35 6.550781 34.554688 7 34 7 L 33 7 C 32.734375 7 32.480469 6.894531 32.292969 6.707031 L 31.9375 6.351562 C 31.796875 6.730469 31.429688 7 31 7 L 30 7 C 30 7.550781 29.554688 8 29 8 L 27 8 C 26.445312 8 26 7.550781 26 7 L 24.414062 7 L 23.707031 7.707031 C 23.519531 7.894531 23.265625 8 23 8 L 22.414062 8 L 20.707031 9.707031 C 20.652344 9.761719 20.59375 9.808594 20.53125 9.847656 L 21.25 10.03125 C 21.691406 10.144531 22 10.542969 22 11 L 22 13 C 22 13.550781 21.554688 14 21 14 L 20.867188 14 L 20.792969 14.542969 C 20.722656 15.035156 20.300781 15.402344 19.804688 15.402344 L 18.890625 15.402344 L 18 16.425781 L 19.285156 17.175781 C 19.558594 17.335938 19.742188 17.613281 19.777344 17.929688 L 19.992188 19.890625 C 20.023438 20.171875 19.933594 20.453125 19.746094 20.664062 C 19.554688 20.878906 19.285156 21 19 21 L 18 21 L 18 22 C 18.554688 22 19 22.449219 19 23 L 19 23.585938 L 19.707031 24.292969 C 19.894531 24.480469 20 24.734375 20 25 L 20 25.382812 L 20.15625 25.460938 C 20.238281 25.335938 20.34375 25.230469 20.472656 25.148438 C 20.769531 24.964844 21.136719 24.949219 21.445312 25.105469 L 23.445312 26.105469 C 23.785156 26.273438 24 26.621094 24 27 L 24 28.382812 L 24.15625 28.460938 C 24.308594 28.222656 24.5625 28.050781 24.859375 28.011719 L 25.117188 27.527344 C 25.292969 27.203125 25.632812 27 26 27 L 27 27 C 27.554688 27 28 27.449219 28 28 L 28 28.585938 Z M 21 48 C 20.742188 48 20.484375 47.898438 20.292969 47.707031 L 19.804688 47.21875 L 18.449219 47.894531 C 18.167969 48.035156 17.835938 48.035156 17.554688 47.894531 L 15.554688 46.894531 C 15.214844 46.726562 15 46.378906 15 46 L 14 46 C 13.652344 46 13.332031 45.820312 13.148438 45.527344 C 12.964844 45.230469 12.949219 44.863281 13.105469 44.554688 L 13.78125 43.199219 L 12.292969 41.707031 C 11.957031 41.371094 11.902344 40.84375 12.167969 40.445312 L 13.714844 38.128906 L 13.292969 37.707031 C 13.105469 37.519531 13 37.265625 13 37 L 13 36 C 13 35.734375 13.105469 35.480469 13.292969 35.292969 L 14.292969 34.292969 C 14.480469 34.105469 14.734375 34 15 34 L 17.175781 34 L 17.210938 33.808594 C 17.304688 33.339844 17.714844 33 18.191406 33 L 19.277344 33 C 19.605469 33 19.914062 33.160156 20.101562 33.433594 L 20.375 33.828125 L 21.472656 33.148438 C 21.769531 32.964844 22.136719 32.949219 22.445312 33.105469 L 26.445312 35.105469 C 26.785156 35.273438 27 35.621094 27 36 L 27 39 C 27 39.265625 26.894531 39.519531 26.707031 39.707031 L 26.382812 40.03125 L 26.738281 40.414062 C 26.90625 40.601562 27 40.839844 27 41.089844 L 27 43 C 27 43.265625 26.894531 43.519531 26.707031 43.707031 L 25.707031 44.707031 C 25.519531 44.894531 25.265625 45 25 45 L 24 45 L 24 46 C 24 46.378906 23.785156 46.726562 23.445312 46.894531 L 21.445312 47.894531 C 21.304688 47.964844 21.152344 48 21 48 Z M 17 45.382812 L 18 45.882812 L 19.554688 45.105469 C 19.9375 44.914062 20.402344 44.988281 20.707031 45.292969 L 21.195312 45.785156 L 22 45.382812 L 22 44 C 22 43.449219 22.445312 43 23 43 L 24.585938 43 L 25 42.585938 L 25 41.480469 L 24.261719 40.675781 C 23.902344 40.28125 23.914062 39.671875 24.292969 39.292969 L 25 38.585938 L 25 36.617188 L 22.050781 35.144531 L 20.617188 36.03125 C 20.160156 36.3125 19.566406 36.1875 19.265625 35.746094 L 18.953125 35.296875 C 18.828125 35.710938 18.441406 36 18 36 L 15.414062 36 L 15 36.414062 L 15 36.585938 L 15.707031 37.292969 C 16.042969 37.628906 16.097656 38.15625 15.832031 38.554688 L 14.285156 40.871094 L 15.707031 42.292969 C 16.011719 42.597656 16.085938 43.0625 15.894531 43.445312 L 15.617188 44 L 16 44 C 16.554688 44 17 44.449219 17 45 Z M 17 45.382812 "/>
<path style=" stroke:none;fill-rule:nonzero;fill:rgb(84.705883%,84.705883%,84.705883%);fill-opacity:1;" d="M 23.359375 44.769531 L 24.640625 43.234375 L 30.640625 48.234375 L 29.359375 49.769531 Z M 23.359375 44.769531 "/>
<path style=" stroke:none;fill-rule:nonzero;fill:rgb(84.705883%,84.705883%,84.705883%);fill-opacity:1;" d="M 33.445312 50.167969 L 39.445312 46.167969 L 40.554688 47.832031 L 34.554688 51.832031 Z M 33.445312 50.167969 "/>
<path style=" stroke:none;fill-rule:nonzero;fill:rgb(84.705883%,84.705883%,84.705883%);fill-opacity:1;" d="M 10 55 C 9.449219 55 9 55.449219 9 56 L 9 58 C 9 58.550781 9.449219 59 10 59 C 10.550781 59 11 58.550781 11 58 L 11 56 C 11 55.449219 10.550781 55 10 55 Z M 15 55 C 14.449219 55 14 55.449219 14 56 L 14 58 C 14 58.550781 14.449219 59 15 59 C 15.550781 59 16 58.550781 16 58 L 16 56 C 16 55.449219 15.550781 55 15 55 Z M 20 59 C 20.550781 59 21 58.550781 21 58 L 21 56 C 21 55.449219 20.550781 55 20 55 C 19.449219 55 19 55.449219 19 56 L 19 58 C 19 58.550781 19.449219 59 20 59 Z M 44 59 C 44.550781 59 45 58.550781 45 58 L 45 56 C 45 55.449219 44.550781 55 44 55 C 43.449219 55 43 55.449219 43 56 L 43 58 C 43 58.550781 43.449219 59 44 59 Z M 49 59 C 49.550781 59 50 58.550781 50 58 L 50 56 C 50 55.449219 49.550781 55 49 55 C 48.449219 55 48 55.449219 48 56 L 48 58 C 48 58.550781 48.449219 59 49 59 Z M 54 59 C 54.550781 59 55 58.550781 55 58 L 55 56 C 55 55.449219 54.550781 55 54 55 C 53.449219 55 53 55.449219 53 56 L 53 58 C 53 58.550781 53.449219 59 54 59 Z M 43 51 C 42.847656 51 42.695312 50.964844 42.554688 50.894531 L 40.554688 49.894531 C 40.214844 49.726562 40 49.378906 40 49 L 40 48.414062 L 39.40625 47.820312 L 37.554688 46.894531 C 37.214844 46.726562 37 46.378906 37 46 L 37 44.089844 C 37 43.882812 37.066406 43.679688 37.1875 43.511719 L 37.515625 43.050781 L 37.179688 42.574219 C 37.0625 42.40625 37 42.203125 37 42 L 37 39 C 37 38.621094 37.214844 38.273438 37.554688 38.105469 L 41.554688 36.105469 C 41.816406 35.972656 42.121094 35.964844 42.390625 36.078125 L 43.941406 36.734375 L 44.207031 36.390625 C 44.394531 36.144531 44.6875 36 45 36 L 46 36 C 46.265625 36 46.519531 36.105469 46.707031 36.292969 L 47.414062 37 L 49 37 C 49.265625 37 49.519531 37.105469 49.707031 37.292969 L 50.707031 38.292969 C 50.894531 38.480469 51 38.734375 51 39 L 51 41 C 51 41.265625 50.894531 41.519531 50.707031 41.707031 L 50.414062 42 L 51.707031 43.292969 C 52.097656 43.683594 52.097656 44.316406 51.707031 44.707031 L 50.21875 46.195312 L 50.894531 47.550781 C 51.050781 47.863281 51.035156 48.230469 50.851562 48.523438 C 50.667969 48.820312 50.347656 49 50 49 L 49 49 C 49 49.378906 48.785156 49.726562 48.445312 49.894531 L 46.445312 50.894531 C 46.164062 51.035156 45.835938 51.035156 45.550781 50.894531 L 44.195312 50.21875 L 43.707031 50.707031 C 43.515625 50.898438 43.257812 51 43 51 Z M 44 48 C 44.152344 48 44.304688 48.035156 44.445312 48.105469 L 46 48.882812 L 47 48.382812 L 47 48 C 47 47.449219 47.445312 47 48 47 L 48.382812 47 L 48.105469 46.445312 C 47.914062 46.0625 47.988281 45.597656 48.292969 45.292969 L 49.585938 44 L 48.292969 42.707031 C 47.902344 42.316406 47.902344 41.683594 48.292969 41.292969 L 49 40.585938 L 49 39.414062 L 48.585938 39 L 47 39 C 46.734375 39 46.480469 38.894531 46.292969 38.707031 L 45.585938 38 L 45.492188 38 L 45.054688 38.566406 C 44.78125 38.929688 44.292969 39.054688 43.871094 38.878906 L 42.035156 38.101562 L 39 39.617188 L 39 41.683594 L 39.558594 42.484375 C 39.800781 42.832031 39.796875 43.292969 39.550781 43.636719 L 39 44.410156 L 39 45.382812 L 40.445312 46.105469 C 40.542969 46.152344 40.632812 46.21875 40.707031 46.292969 L 41.707031 47.292969 C 41.894531 47.480469 42 47.734375 42 48 L 42 48.382812 L 42.804688 48.78125 L 43.292969 48.292969 C 43.484375 48.101562 43.742188 48 44 48 Z M 44 48 "/>
</g>
</svg>
