<?xml version="1.0" encoding="UTF-8"?>
<!DOCTYPE svg PUBLIC "-//W3C//DTD SVG 1.1//EN" "http://www.w3.org/Graphics/SVG/1.1/DTD/svg11.dtd">
<svg version="1.2" width="100mm" height="100mm" viewBox="0 0 10000 10000" preserveAspectRatio="xMidYMid" fill-rule="evenodd" stroke-width="28.222" stroke-linejoin="round" xmlns="http://www.w3.org/2000/svg" xmlns:ooo="http://xml.openoffice.org/svg/export" xmlns:xlink="http://www.w3.org/1999/xlink" xmlns:presentation="http://sun.com/xmlns/staroffice/presentation" xmlns:smil="http://www.w3.org/2001/SMIL20/" xmlns:anim="urn:oasis:names:tc:opendocument:xmlns:animation:1.0" xml:space="preserve">
 <defs class="ClipPathGroup">
  <clipPath id="presentation_clip_path" clipPathUnits="userSpaceOnUse">
   <rect x="0" y="0" width="10000" height="10000"/>
  </clipPath>
  <clipPath id="presentation_clip_path_shrink" clipPathUnits="userSpaceOnUse">
   <rect x="10" y="10" width="9980" height="9980"/>
  </clipPath>
 </defs>
 <defs class="TextShapeIndex">
  <g ooo:slide="id1" ooo:id-list="id3 id4 id5 id6 id7 id8 id9 id10 id11 id12 id13"/>
 </defs>
 <defs class="EmbeddedBulletChars">
  <g id="bullet-char-template-57356" transform="scale(0.00048828125,-0.00048828125)">
   <path d="M 580,1141 L 1163,571 580,0 -4,571 580,1141 Z"/>
  </g>
  <g id="bullet-char-template-57354" transform="scale(0.00048828125,-0.00048828125)">
   <path d="M 8,1128 L 1137,1128 1137,0 8,0 8,1128 Z"/>
  </g>
  <g id="bullet-char-template-10146" transform="scale(0.00048828125,-0.00048828125)">
   <path d="M 174,0 L 602,739 174,1481 1456,739 174,0 Z M 1358,739 L 309,1346 659,739 1358,739 Z"/>
  </g>
  <g id="bullet-char-template-10132" transform="scale(0.00048828125,-0.00048828125)">
   <path d="M 2015,739 L 1276,0 717,0 1260,543 174,543 174,936 1260,936 717,1481 1274,1481 2015,739 Z"/>
  </g>
  <g id="bullet-char-template-10007" transform="scale(0.00048828125,-0.00048828125)">
   <path d="M 0,-2 C -7,14 -16,27 -25,37 L 356,567 C 262,823 215,952 215,954 215,979 228,992 255,992 264,992 276,990 289,987 310,991 331,999 354,1012 L 381,999 492,748 772,1049 836,1024 860,1049 C 881,1039 901,1025 922,1006 886,937 835,863 770,784 769,783 710,716 594,584 L 774,223 C 774,196 753,168 711,139 L 727,119 C 717,90 699,76 672,76 641,76 570,178 457,381 L 164,-76 C 142,-110 111,-127 72,-127 30,-127 9,-110 8,-76 1,-67 -2,-52 -2,-32 -2,-23 -1,-13 0,-2 Z"/>
  </g>
  <g id="bullet-char-template-10004" transform="scale(0.00048828125,-0.00048828125)">
   <path d="M 285,-33 C 182,-33 111,30 74,156 52,228 41,333 41,471 41,549 55,616 82,672 116,743 169,778 240,778 293,778 328,747 346,684 L 369,508 C 377,444 397,411 428,410 L 1163,1116 C 1174,1127 1196,1133 1229,1133 1271,1133 1292,1118 1292,1087 L 1292,965 C 1292,929 1282,901 1262,881 L 442,47 C 390,-6 338,-33 285,-33 Z"/>
  </g>
  <g id="bullet-char-template-9679" transform="scale(0.00048828125,-0.00048828125)">
   <path d="M 813,0 C 632,0 489,54 383,161 276,268 223,411 223,592 223,773 276,916 383,1023 489,1130 632,1184 813,1184 992,1184 1136,1130 1245,1023 1353,916 1407,772 1407,592 1407,412 1353,268 1245,161 1136,54 992,0 813,0 Z"/>
  </g>
  <g id="bullet-char-template-8226" transform="scale(0.00048828125,-0.00048828125)">
   <path d="M 346,457 C 273,457 209,483 155,535 101,586 74,649 74,723 74,796 101,859 155,911 209,963 273,989 346,989 419,989 480,963 531,910 582,859 608,796 608,723 608,648 583,586 532,535 482,483 420,457 346,457 Z"/>
  </g>
  <g id="bullet-char-template-8211" transform="scale(0.00048828125,-0.00048828125)">
   <path d="M -4,459 L 1135,459 1135,606 -4,606 -4,459 Z"/>
  </g>
  <g id="bullet-char-template-61548" transform="scale(0.00048828125,-0.00048828125)">
   <path d="M 173,740 C 173,903 231,1043 346,1159 462,1274 601,1332 765,1332 928,1332 1067,1274 1183,1159 1299,1043 1357,903 1357,740 1357,577 1299,437 1183,322 1067,206 928,148 765,148 601,148 462,206 346,322 231,437 173,577 173,740 Z"/>
  </g>
 </defs>
 <g>
  <g id="id2" class="Master_Slide">
   <g id="bg-id2" class="Background"/>
   <g id="bo-id2" class="BackgroundObjects"/>
  </g>
 </g>
 <g class="SlideGroup">
  <g>
   <g id="container-id1">
    <g id="id1" class="Slide" clip-path="url(#presentation_clip_path)">
     <g class="Page">
      <g class="com.sun.star.drawing.CustomShape">
       <g id="id3">
        <rect class="BoundingBox" stroke="none" fill="none" x="888" y="2555" width="7780" height="5224"/>
        <path fill="rgb(178,178,178)" stroke="none" d="M 2098,2555 L 2098,2555 C 1886,2555 1677,2611 1493,2717 1309,2823 1156,2976 1050,3160 944,3344 888,3553 888,3765 L 888,6567 888,6568 C 888,6780 944,6989 1050,7173 1156,7357 1309,7510 1493,7616 1677,7722 1886,7778 2098,7778 L 7456,7778 7457,7778 C 7669,7778 7878,7722 8062,7616 8246,7510 8399,7357 8505,7173 8611,6989 8667,6780 8667,6568 L 8667,3765 8667,3765 8667,3765 C 8667,3553 8611,3344 8505,3160 8399,2976 8246,2823 8062,2717 7878,2611 7669,2555 7457,2555 L 2098,2555 Z"/>
       </g>
      </g>
      <g class="com.sun.star.drawing.ClosedBezierShape">
       <g id="id4">
        <rect class="BoundingBox" stroke="none" fill="none" x="1222" y="3000" width="7445" height="4778"/>
        <path fill="rgb(128,128,128)" stroke="none" d="M 1222,7333 C 7555,7333 7555,7333 7555,7333 7555,7333 8333,7333 8333,6666 8333,5999 8333,3000 8333,3000 L 8666,3444 8666,6777 8333,7444 7444,7777 1777,7777 1222,7333 Z"/>
       </g>
      </g>
      <g class="com.sun.star.drawing.LineShape">
       <g id="id5">
        <rect class="BoundingBox" stroke="none" fill="none" x="-4746" y="11253" width="7494" height="161"/>
        <path fill="none" stroke="rgb(255,255,255)" stroke-width="159" stroke-linejoin="round" stroke-linecap="round" d="M -4666,11333 L 2667,11333"/>
       </g>
      </g>
      <g class="com.sun.star.drawing.CustomShape">
       <g id="id6">
        <rect class="BoundingBox" stroke="none" fill="none" x="782" y="2449" width="7992" height="5436"/>
        <path fill="none" stroke="rgb(255,255,255)" stroke-width="212" stroke-linejoin="round" d="M 2098,2555 L 2098,2555 C 1886,2555 1677,2611 1493,2717 1309,2823 1156,2976 1050,3160 944,3344 888,3553 888,3765 L 888,6567 888,6568 C 888,6780 944,6989 1050,7173 1156,7357 1309,7510 1493,7616 1677,7722 1886,7778 2098,7778 L 7456,7778 7457,7778 C 7669,7778 7878,7722 8062,7616 8246,7510 8399,7357 8505,7173 8611,6989 8667,6780 8667,6568 L 8667,3765 8667,3765 8667,3765 C 8667,3553 8611,3344 8505,3160 8399,2976 8246,2823 8062,2717 7878,2611 7669,2555 7457,2555 L 2098,2555 Z"/>
       </g>
      </g>
      <g class="com.sun.star.drawing.CustomShape">
       <g id="id7">
        <rect class="BoundingBox" stroke="none" fill="none" x="1395" y="3182" width="3987" height="3990"/>
        <path fill="none" stroke="rgb(2,152,150)" stroke-width="318" stroke-linejoin="round" d="M 5222,5177 C 5222,5499 5137,5815 4976,6094 4815,6373 4584,6605 4305,6766 4026,6927 3710,7012 3388,7012 3066,7012 2750,6927 2471,6766 2192,6605 1961,6373 1800,6094 1639,5815 1554,5499 1554,5177 1554,4854 1639,4538 1800,4259 1961,3980 2192,3748 2471,3587 2750,3426 3066,3341 3388,3341 3710,3341 4026,3426 4305,3587 4584,3748 4815,3980 4976,4259 5137,4538 5222,4854 5222,5176 L 5222,5177 Z"/>
       </g>
      </g>
      <g class="com.sun.star.drawing.OpenBezierShape">
       <g id="id8">
        <rect class="BoundingBox" stroke="none" fill="none" x="1920" y="5770" width="2827" height="655"/>
        <path fill="none" stroke="rgb(2,152,150)" stroke-width="159" stroke-linejoin="round" d="M 2000,6344 C 3333,5233 4666,6344 4666,6344"/>
       </g>
      </g>
      <g class="com.sun.star.drawing.CustomShape">
       <g id="id9">
        <rect class="BoundingBox" stroke="none" fill="none" x="2474" y="4102" width="1829" height="1830"/>
        <path fill="none" stroke="rgb(2,152,150)" stroke-width="159" stroke-linejoin="round" d="M 4222,5017 C 4222,5163 4183,5307 4110,5434 4037,5561 3932,5666 3805,5739 3678,5812 3534,5851 3388,5851 3242,5851 3098,5812 2971,5739 2844,5666 2739,5561 2666,5434 2593,5307 2554,5163 2554,5017 2554,4870 2593,4726 2666,4599 2739,4472 2844,4367 2971,4294 3098,4221 3242,4182 3388,4182 3534,4182 3678,4221 3805,4294 3932,4367 4037,4472 4110,4599 4183,4726 4222,4870 4222,5016 L 4222,5017 Z"/>
       </g>
      </g>
      <g class="com.sun.star.drawing.LineShape">
       <g id="id10">
        <rect class="BoundingBox" stroke="none" fill="none" x="5671" y="4116" width="2436" height="213"/>
        <path fill="none" stroke="rgb(255,255,255)" stroke-width="212" stroke-linejoin="round" stroke-linecap="round" d="M 5777,4222 L 8000,4222"/>
       </g>
      </g>
      <g class="com.sun.star.drawing.LineShape">
       <g id="id11">
        <rect class="BoundingBox" stroke="none" fill="none" x="5671" y="5105" width="2436" height="213"/>
        <path fill="none" stroke="rgb(255,255,255)" stroke-width="212" stroke-linejoin="round" stroke-linecap="round" d="M 5777,5211 L 8000,5211"/>
       </g>
      </g>
      <g class="com.sun.star.drawing.LineShape">
       <g id="id12">
        <rect class="BoundingBox" stroke="none" fill="none" x="5671" y="6005" width="2436" height="213"/>
        <path fill="none" stroke="rgb(255,255,255)" stroke-width="212" stroke-linejoin="round" stroke-linecap="round" d="M 5777,6111 L 8000,6111"/>
       </g>
      </g>
      <g class="com.sun.star.drawing.CustomShape">
       <g id="id13">
        <rect class="BoundingBox" stroke="none" fill="none" x="4169" y="1723" width="1329" height="1218"/>
        <path fill="rgb(128,128,128)" stroke="none" d="M 4833,2887 L 4222,2887 4222,1776 5444,1776 5444,2887 4833,2887 Z"/>
        <path fill="none" stroke="rgb(255,255,255)" stroke-width="106" stroke-linejoin="round" d="M 4833,2887 L 4222,2887 4222,1776 5444,1776 5444,2887 4833,2887 Z"/>
       </g>
      </g>
     </g>
    </g>
   </g>
  </g>
 </g>
</svg>