<?xml version="1.0" encoding="UTF-8"?>
<!DOCTYPE svg PUBLIC "-//W3C//DTD SVG 1.1//EN" "http://www.w3.org/Graphics/SVG/1.1/DTD/svg11.dtd">
<svg version="1.2" width="100mm" height="100mm" viewBox="0 0 10000 10000" preserveAspectRatio="xMidYMid" fill-rule="evenodd" stroke-width="28.222" stroke-linejoin="round" xmlns="http://www.w3.org/2000/svg" xmlns:ooo="http://xml.openoffice.org/svg/export" xmlns:xlink="http://www.w3.org/1999/xlink" xmlns:presentation="http://sun.com/xmlns/staroffice/presentation" xmlns:smil="http://www.w3.org/2001/SMIL20/" xmlns:anim="urn:oasis:names:tc:opendocument:xmlns:animation:1.0" xml:space="preserve">
 <defs class="ClipPathGroup">
  <clipPath id="presentation_clip_path" clipPathUnits="userSpaceOnUse">
   <rect x="0" y="0" width="10000" height="10000"/>
  </clipPath>
  <clipPath id="presentation_clip_path_shrink" clipPathUnits="userSpaceOnUse">
   <rect x="10" y="10" width="9980" height="9980"/>
  </clipPath>
 </defs>
 <defs class="TextShapeIndex">
  <g ooo:slide="id1" ooo:id-list="id3 id4 id5 id6 id7 id8 id9 id10 id11 id12 id13 id14 id15 id16 id17 id18 id19 id20 id21 id22"/>
 </defs>
 <defs class="EmbeddedBulletChars">
  <g id="bullet-char-template-57356" transform="scale(0.00048828125,-0.00048828125)">
   <path d="M 580,1141 L 1163,571 580,0 -4,571 580,1141 Z"/>
  </g>
  <g id="bullet-char-template-57354" transform="scale(0.00048828125,-0.00048828125)">
   <path d="M 8,1128 L 1137,1128 1137,0 8,0 8,1128 Z"/>
  </g>
  <g id="bullet-char-template-10146" transform="scale(0.00048828125,-0.00048828125)">
   <path d="M 174,0 L 602,739 174,1481 1456,739 174,0 Z M 1358,739 L 309,1346 659,739 1358,739 Z"/>
  </g>
  <g id="bullet-char-template-10132" transform="scale(0.00048828125,-0.00048828125)">
   <path d="M 2015,739 L 1276,0 717,0 1260,543 174,543 174,936 1260,936 717,1481 1274,1481 2015,739 Z"/>
  </g>
  <g id="bullet-char-template-10007" transform="scale(0.00048828125,-0.00048828125)">
   <path d="M 0,-2 C -7,14 -16,27 -25,37 L 356,567 C 262,823 215,952 215,954 215,979 228,992 255,992 264,992 276,990 289,987 310,991 331,999 354,1012 L 381,999 492,748 772,1049 836,1024 860,1049 C 881,1039 901,1025 922,1006 886,937 835,863 770,784 769,783 710,716 594,584 L 774,223 C 774,196 753,168 711,139 L 727,119 C 717,90 699,76 672,76 641,76 570,178 457,381 L 164,-76 C 142,-110 111,-127 72,-127 30,-127 9,-110 8,-76 1,-67 -2,-52 -2,-32 -2,-23 -1,-13 0,-2 Z"/>
  </g>
  <g id="bullet-char-template-10004" transform="scale(0.00048828125,-0.00048828125)">
   <path d="M 285,-33 C 182,-33 111,30 74,156 52,228 41,333 41,471 41,549 55,616 82,672 116,743 169,778 240,778 293,778 328,747 346,684 L 369,508 C 377,444 397,411 428,410 L 1163,1116 C 1174,1127 1196,1133 1229,1133 1271,1133 1292,1118 1292,1087 L 1292,965 C 1292,929 1282,901 1262,881 L 442,47 C 390,-6 338,-33 285,-33 Z"/>
  </g>
  <g id="bullet-char-template-9679" transform="scale(0.00048828125,-0.00048828125)">
   <path d="M 813,0 C 632,0 489,54 383,161 276,268 223,411 223,592 223,773 276,916 383,1023 489,1130 632,1184 813,1184 992,1184 1136,1130 1245,1023 1353,916 1407,772 1407,592 1407,412 1353,268 1245,161 1136,54 992,0 813,0 Z"/>
  </g>
  <g id="bullet-char-template-8226" transform="scale(0.00048828125,-0.00048828125)">
   <path d="M 346,457 C 273,457 209,483 155,535 101,586 74,649 74,723 74,796 101,859 155,911 209,963 273,989 346,989 419,989 480,963 531,910 582,859 608,796 608,723 608,648 583,586 532,535 482,483 420,457 346,457 Z"/>
  </g>
  <g id="bullet-char-template-8211" transform="scale(0.00048828125,-0.00048828125)">
   <path d="M -4,459 L 1135,459 1135,606 -4,606 -4,459 Z"/>
  </g>
  <g id="bullet-char-template-61548" transform="scale(0.00048828125,-0.00048828125)">
   <path d="M 173,740 C 173,903 231,1043 346,1159 462,1274 601,1332 765,1332 928,1332 1067,1274 1183,1159 1299,1043 1357,903 1357,740 1357,577 1299,437 1183,322 1067,206 928,148 765,148 601,148 462,206 346,322 231,437 173,577 173,740 Z"/>
  </g>
 </defs>
 <g>
  <g id="id2" class="Master_Slide">
   <g id="bg-id2" class="Background"/>
   <g id="bo-id2" class="BackgroundObjects"/>
  </g>
 </g>
 <g class="SlideGroup">
  <g>
   <g id="container-id1">
    <g id="id1" class="Slide" clip-path="url(#presentation_clip_path)">
     <g class="Page">
      <g class="com.sun.star.drawing.PolyPolygonShape">
       <g id="id3">
        <rect class="BoundingBox" stroke="none" fill="none" x="7333" y="2111" width="1335" height="6556"/>
        <path fill="rgb(153,153,153)" stroke="none" d="M 7333,2111 L 8555,2111 8666,2333 8666,8333 8444,8666 8000,8666 7666,8333 7506,7888 7555,2444 7333,2111 Z"/>
       </g>
      </g>
      <g class="com.sun.star.drawing.PolyPolygonShape">
       <g id="id4">
        <rect class="BoundingBox" stroke="none" fill="none" x="1333" y="1444" width="6556" height="7223"/>
        <path fill="rgb(221,221,221)" stroke="none" d="M 1444,1444 L 6555,1444 7506,2444 7666,8333 7888,8666 1888,8666 1444,8444 1333,8111 1444,1444 Z"/>
       </g>
      </g>
      <g class="com.sun.star.drawing.LineShape">
       <g id="id5">
        <rect class="BoundingBox" stroke="none" fill="none" x="-4746" y="11253" width="7494" height="161"/>
        <path fill="none" stroke="rgb(255,255,255)" stroke-width="159" stroke-linejoin="round" stroke-linecap="round" d="M -4666,11333 L 2667,11333"/>
       </g>
      </g>
      <g class="com.sun.star.drawing.PolyLineShape">
       <g id="id6">
        <rect class="BoundingBox" stroke="none" fill="none" x="1920" y="1808" width="938" height="1161"/>
        <path fill="none" stroke="rgb(2,152,150)" stroke-width="159" stroke-linejoin="round" stroke-linecap="round" d="M 2000,2888 L 2000,2000 2777,2888 2777,1888"/>
       </g>
      </g>
      <g class="com.sun.star.drawing.PolyLineShape">
       <g id="id7">
        <rect class="BoundingBox" stroke="none" fill="none" x="3253" y="1808" width="828" height="1161"/>
        <path fill="none" stroke="rgb(2,152,150)" stroke-width="159" stroke-linejoin="round" stroke-linecap="round" d="M 4000,2888 L 3333,2888 3333,2333 3888,2333 3333,2333 3333,1888 4000,1888"/>
       </g>
      </g>
      <g class="com.sun.star.drawing.PolyLineShape">
       <g id="id8">
        <rect class="BoundingBox" stroke="none" fill="none" x="4364" y="1920" width="1494" height="1049"/>
        <path fill="none" stroke="rgb(2,152,150)" stroke-width="159" stroke-linejoin="round" stroke-linecap="round" d="M 4444,2000 L 4777,2888 5111,2000 5444,2888 5777,2000"/>
       </g>
      </g>
      <g class="com.sun.star.drawing.OpenBezierShape">
       <g id="id9">
        <rect class="BoundingBox" stroke="none" fill="none" x="6031" y="1920" width="716" height="1049"/>
        <path fill="none" stroke="rgb(2,152,150)" stroke-width="159" stroke-linejoin="round" d="M 6471,2000 C 6201,2000 6201,2254 6201,2254 6201,2254 6201,2507 6471,2507 6741,2507 6651,2760 6651,2760 6651,2760 6471,3098 6111,2675"/>
       </g>
      </g>
      <g class="com.sun.star.drawing.OpenBezierShape">
       <g id="id10">
        <rect class="BoundingBox" stroke="none" fill="none" x="1227" y="1338" width="7546" height="7435"/>
        <path fill="none" stroke="rgb(255,255,255)" stroke-width="212" stroke-linejoin="round" stroke-linecap="round" d="M 6555,1444 L 1444,1444 1333,8111 C 1333,8111 1333,8666 2000,8666 L 8222,8666 C 8222,8666 8666,8666 8666,8111 L 8666,2333 C 8666,2333 8666,2111 8444,2111 L 7222,2111 6666,1555 6555,1555 6555,2444 7555,2444 6666,1555"/>
       </g>
      </g>
      <g class="com.sun.star.drawing.LineShape">
       <g id="id11">
        <rect class="BoundingBox" stroke="none" fill="none" x="6449" y="1338" width="436" height="435"/>
        <path fill="none" stroke="rgb(255,255,255)" stroke-width="212" stroke-linejoin="round" d="M 6555,1444 L 6777,1666"/>
       </g>
      </g>
      <g class="com.sun.star.drawing.OpenBezierShape">
       <g id="id12">
        <rect class="BoundingBox" stroke="none" fill="none" x="7399" y="2338" width="930" height="6436"/>
        <path fill="none" stroke="rgb(255,255,255)" stroke-width="212" stroke-linejoin="round" d="M 7555,2444 C 7444,8000 7555,8000 7555,8000 7555,8000 7555,8666 8222,8666"/>
       </g>
      </g>
      <g class="com.sun.star.drawing.LineShape">
       <g id="id13">
        <rect class="BoundingBox" stroke="none" fill="none" x="8005" y="2005" width="213" height="6102"/>
        <path fill="none" stroke="rgb(255,255,255)" stroke-width="212" stroke-linejoin="round" stroke-linecap="round" d="M 8111,2111 L 8111,8000"/>
       </g>
      </g>
      <g class="com.sun.star.drawing.LineShape">
       <g id="id14">
        <rect class="BoundingBox" stroke="none" fill="none" x="1697" y="3364" width="5495" height="161"/>
        <path fill="none" stroke="rgb(0,0,0)" stroke-width="159" stroke-linejoin="round" stroke-linecap="round" d="M 1777,3444 L 7111,3444"/>
       </g>
      </g>
      <g class="com.sun.star.drawing.CustomShape">
       <g id="id15">
        <rect class="BoundingBox" stroke="none" fill="none" x="1807" y="4030" width="3050" height="2272"/>
        <path fill="rgb(255,128,0)" stroke="none" d="M 3332,6221 L 1887,6221 1887,4110 4776,4110 4776,6221 3332,6221 Z"/>
        <path fill="none" stroke="rgb(128,128,128)" stroke-width="159" stroke-linejoin="round" d="M 3332,6221 L 1887,6221 1887,4110 4776,4110 4776,6221 3332,6221 Z"/>
       </g>
      </g>
      <g class="com.sun.star.drawing.LineShape">
       <g id="id16">
        <rect class="BoundingBox" stroke="none" fill="none" x="5031" y="4031" width="2272" height="161"/>
        <path fill="none" stroke="rgb(128,128,128)" stroke-width="159" stroke-linejoin="round" stroke-linecap="round" d="M 5111,4111 L 7222,4111"/>
       </g>
      </g>
      <g class="com.sun.star.drawing.LineShape">
       <g id="id17">
        <rect class="BoundingBox" stroke="none" fill="none" x="5031" y="4697" width="2272" height="161"/>
        <path fill="none" stroke="rgb(128,128,128)" stroke-width="159" stroke-linejoin="round" stroke-linecap="round" d="M 5111,4777 L 7222,4777"/>
       </g>
      </g>
      <g class="com.sun.star.drawing.LineShape">
       <g id="id18">
        <rect class="BoundingBox" stroke="none" fill="none" x="5031" y="5364" width="2272" height="161"/>
        <path fill="none" stroke="rgb(128,128,128)" stroke-width="159" stroke-linejoin="round" stroke-linecap="round" d="M 5111,5444 L 7222,5444"/>
       </g>
      </g>
      <g class="com.sun.star.drawing.LineShape">
       <g id="id19">
        <rect class="BoundingBox" stroke="none" fill="none" x="5031" y="6031" width="2272" height="161"/>
        <path fill="none" stroke="rgb(128,128,128)" stroke-width="159" stroke-linejoin="round" stroke-linecap="round" d="M 5111,6111 L 7222,6111"/>
       </g>
      </g>
      <g class="com.sun.star.drawing.LineShape">
       <g id="id20">
        <rect class="BoundingBox" stroke="none" fill="none" x="1697" y="6697" width="5606" height="161"/>
        <path fill="none" stroke="rgb(128,128,128)" stroke-width="159" stroke-linejoin="round" stroke-linecap="round" d="M 1777,6777 L 7222,6777"/>
       </g>
      </g>
      <g class="com.sun.star.drawing.LineShape">
       <g id="id21">
        <rect class="BoundingBox" stroke="none" fill="none" x="1697" y="7253" width="5606" height="161"/>
        <path fill="none" stroke="rgb(128,128,128)" stroke-width="159" stroke-linejoin="round" stroke-linecap="round" d="M 1777,7333 L 7222,7333"/>
       </g>
      </g>
      <g class="com.sun.star.drawing.LineShape">
       <g id="id22">
        <rect class="BoundingBox" stroke="none" fill="none" x="1697" y="7808" width="5606" height="161"/>
        <path fill="none" stroke="rgb(128,128,128)" stroke-width="159" stroke-linejoin="round" stroke-linecap="round" d="M 1777,7888 L 7222,7888"/>
       </g>
      </g>
     </g>
    </g>
   </g>
  </g>
 </g>
</svg>