<?xml version="1.0" encoding="UTF-8"?>
<!DOCTYPE svg PUBLIC "-//W3C//DTD SVG 1.1//EN" "http://www.w3.org/Graphics/SVG/1.1/DTD/svg11.dtd">
<svg version="1.2" width="100mm" height="100mm" viewBox="0 0 10000 10000" preserveAspectRatio="xMidYMid" fill-rule="evenodd" stroke-width="28.222" stroke-linejoin="round" xmlns="http://www.w3.org/2000/svg" xmlns:ooo="http://xml.openoffice.org/svg/export" xmlns:xlink="http://www.w3.org/1999/xlink" xmlns:presentation="http://sun.com/xmlns/staroffice/presentation" xmlns:smil="http://www.w3.org/2001/SMIL20/" xmlns:anim="urn:oasis:names:tc:opendocument:xmlns:animation:1.0" xml:space="preserve">
 <defs class="ClipPathGroup">
  <clipPath id="presentation_clip_path" clipPathUnits="userSpaceOnUse">
   <rect x="0" y="0" width="10000" height="10000"/>
  </clipPath>
  <clipPath id="presentation_clip_path_shrink" clipPathUnits="userSpaceOnUse">
   <rect x="10" y="10" width="9980" height="9980"/>
  </clipPath>
 </defs>
 <defs class="TextShapeIndex">
  <g ooo:slide="id1" ooo:id-list="id3 id4 id5 id6 id7 id8 id9 id10 id11 id12 id13 id14 id15 id16 id17 id18 id19 id20 id21 id22 id23 id24 id25 id26 id27 id28 id29 id30 id31 id32 id33 id34"/>
 </defs>
 <defs class="EmbeddedBulletChars">
  <g id="bullet-char-template-57356" transform="scale(0.00048828125,-0.00048828125)">
   <path d="M 580,1141 L 1163,571 580,0 -4,571 580,1141 Z"/>
  </g>
  <g id="bullet-char-template-57354" transform="scale(0.00048828125,-0.00048828125)">
   <path d="M 8,1128 L 1137,1128 1137,0 8,0 8,1128 Z"/>
  </g>
  <g id="bullet-char-template-10146" transform="scale(0.00048828125,-0.00048828125)">
   <path d="M 174,0 L 602,739 174,1481 1456,739 174,0 Z M 1358,739 L 309,1346 659,739 1358,739 Z"/>
  </g>
  <g id="bullet-char-template-10132" transform="scale(0.00048828125,-0.00048828125)">
   <path d="M 2015,739 L 1276,0 717,0 1260,543 174,543 174,936 1260,936 717,1481 1274,1481 2015,739 Z"/>
  </g>
  <g id="bullet-char-template-10007" transform="scale(0.00048828125,-0.00048828125)">
   <path d="M 0,-2 C -7,14 -16,27 -25,37 L 356,567 C 262,823 215,952 215,954 215,979 228,992 255,992 264,992 276,990 289,987 310,991 331,999 354,1012 L 381,999 492,748 772,1049 836,1024 860,1049 C 881,1039 901,1025 922,1006 886,937 835,863 770,784 769,783 710,716 594,584 L 774,223 C 774,196 753,168 711,139 L 727,119 C 717,90 699,76 672,76 641,76 570,178 457,381 L 164,-76 C 142,-110 111,-127 72,-127 30,-127 9,-110 8,-76 1,-67 -2,-52 -2,-32 -2,-23 -1,-13 0,-2 Z"/>
  </g>
  <g id="bullet-char-template-10004" transform="scale(0.00048828125,-0.00048828125)">
   <path d="M 285,-33 C 182,-33 111,30 74,156 52,228 41,333 41,471 41,549 55,616 82,672 116,743 169,778 240,778 293,778 328,747 346,684 L 369,508 C 377,444 397,411 428,410 L 1163,1116 C 1174,1127 1196,1133 1229,1133 1271,1133 1292,1118 1292,1087 L 1292,965 C 1292,929 1282,901 1262,881 L 442,47 C 390,-6 338,-33 285,-33 Z"/>
  </g>
  <g id="bullet-char-template-9679" transform="scale(0.00048828125,-0.00048828125)">
   <path d="M 813,0 C 632,0 489,54 383,161 276,268 223,411 223,592 223,773 276,916 383,1023 489,1130 632,1184 813,1184 992,1184 1136,1130 1245,1023 1353,916 1407,772 1407,592 1407,412 1353,268 1245,161 1136,54 992,0 813,0 Z"/>
  </g>
  <g id="bullet-char-template-8226" transform="scale(0.00048828125,-0.00048828125)">
   <path d="M 346,457 C 273,457 209,483 155,535 101,586 74,649 74,723 74,796 101,859 155,911 209,963 273,989 346,989 419,989 480,963 531,910 582,859 608,796 608,723 608,648 583,586 532,535 482,483 420,457 346,457 Z"/>
  </g>
  <g id="bullet-char-template-8211" transform="scale(0.00048828125,-0.00048828125)">
   <path d="M -4,459 L 1135,459 1135,606 -4,606 -4,459 Z"/>
  </g>
  <g id="bullet-char-template-61548" transform="scale(0.00048828125,-0.00048828125)">
   <path d="M 173,740 C 173,903 231,1043 346,1159 462,1274 601,1332 765,1332 928,1332 1067,1274 1183,1159 1299,1043 1357,903 1357,740 1357,577 1299,437 1183,322 1067,206 928,148 765,148 601,148 462,206 346,322 231,437 173,577 173,740 Z"/>
  </g>
 </defs>
 <g>
  <g id="id2" class="Master_Slide">
   <g id="bg-id2" class="Background"/>
   <g id="bo-id2" class="BackgroundObjects"/>
  </g>
 </g>
 <g class="SlideGroup">
  <g>
   <g id="container-id1">
    <g id="id1" class="Slide" clip-path="url(#presentation_clip_path)">
     <g class="Page">
      <g class="com.sun.star.drawing.CustomShape">
       <g id="id3">
        <rect class="BoundingBox" stroke="none" fill="none" x="2341" y="3934" width="5454" height="2173"/>
        <path fill="rgb(178,178,178)" stroke="none" d="M 5068,6106 L 2341,6106 2341,3934 7794,3934 7794,6106 5068,6106 Z"/>
       </g>
      </g>
      <g class="com.sun.star.drawing.CustomShape">
       <g id="id4">
        <rect class="BoundingBox" stroke="none" fill="none" x="2341" y="5882" width="5454" height="224"/>
        <path fill="rgb(102,102,102)" stroke="none" d="M 5068,6105 L 2341,6105 2341,5882 7794,5882 7794,6105 5068,6105 Z"/>
       </g>
      </g>
      <g class="com.sun.star.drawing.CustomShape">
       <g id="id5">
        <rect class="BoundingBox" stroke="none" fill="none" x="7553" y="3933" width="244" height="2174"/>
        <path fill="rgb(102,102,102)" stroke="none" d="M 7563,5020 L 7553,3935 7776,3933 7795,6104 7572,6106 7563,5020 Z"/>
       </g>
      </g>
      <g class="com.sun.star.drawing.OpenBezierShape">
       <g id="id6">
        <rect class="BoundingBox" stroke="none" fill="none" x="1031" y="2120" width="1375" height="2961"/>
        <path fill="none" stroke="rgb(255,128,0)" stroke-width="159" stroke-linejoin="round" d="M 2325,2200 C -406,2200 2325,5000 2325,5000"/>
       </g>
      </g>
      <g class="com.sun.star.drawing.OpenBezierShape">
       <g id="id7">
        <rect class="BoundingBox" stroke="none" fill="none" x="7706" y="5076" width="1375" height="2961"/>
        <path fill="none" stroke="rgb(255,128,0)" stroke-width="159" stroke-linejoin="round" d="M 7786,5156 C 10517,5156 7786,7956 7786,7956"/>
       </g>
      </g>
      <g class="com.sun.star.drawing.CustomShape">
       <g id="id8">
        <rect class="BoundingBox" stroke="none" fill="none" x="2253" y="3853" width="5623" height="2338"/>
        <path fill="none" stroke="rgb(255,255,255)" stroke-width="159" stroke-linejoin="round" d="M 5064,6110 L 2333,6110 2333,3933 7795,3933 7795,6110 5064,6110 Z"/>
       </g>
      </g>
      <g class="com.sun.star.drawing.LineShape">
       <g id="id9">
        <rect class="BoundingBox" stroke="none" fill="none" x="6350" y="4320" width="161" height="1406"/>
        <path fill="none" stroke="rgb(0,0,0)" stroke-width="159" stroke-linejoin="round" stroke-linecap="round" d="M 6430,4400 L 6430,5645"/>
       </g>
      </g>
      <g class="com.sun.star.drawing.LineShape">
       <g id="id10">
        <rect class="BoundingBox" stroke="none" fill="none" x="6653" y="4320" width="161" height="1406"/>
        <path fill="none" stroke="rgb(0,0,0)" stroke-width="159" stroke-linejoin="round" stroke-linecap="round" d="M 6733,4400 L 6733,5645"/>
       </g>
      </g>
      <g class="com.sun.star.drawing.LineShape">
       <g id="id11">
        <rect class="BoundingBox" stroke="none" fill="none" x="6956" y="4320" width="161" height="1406"/>
        <path fill="none" stroke="rgb(0,0,0)" stroke-width="159" stroke-linejoin="round" stroke-linecap="round" d="M 7036,4400 L 7036,5645"/>
       </g>
      </g>
      <g class="com.sun.star.drawing.LineShape">
       <g id="id12">
        <rect class="BoundingBox" stroke="none" fill="none" x="2646" y="4880" width="587" height="284"/>
        <path fill="none" stroke="rgb(255,0,0)" stroke-width="282" stroke-linejoin="round" stroke-linecap="round" d="M 2788,5022 L 3091,5022"/>
       </g>
      </g>
      <g class="com.sun.star.drawing.LineShape">
       <g id="id13">
        <rect class="BoundingBox" stroke="none" fill="none" x="3254" y="4880" width="587" height="284"/>
        <path fill="none" stroke="rgb(129,212,26)" stroke-width="282" stroke-linejoin="round" stroke-linecap="round" d="M 3395,5022 L 3699,5022"/>
       </g>
      </g>
      <g class="com.sun.star.drawing.LineShape">
       <g id="id14">
        <rect class="BoundingBox" stroke="none" fill="none" x="3860" y="4880" width="587" height="284"/>
        <path fill="none" stroke="rgb(42,96,153)" stroke-width="282" stroke-linejoin="round" stroke-linecap="round" d="M 4002,5022 L 4305,5022"/>
       </g>
      </g>
      <g class="com.sun.star.drawing.CustomShape">
       <g id="id15">
        <rect class="BoundingBox" stroke="none" fill="none" x="2341" y="1045" width="5454" height="2173"/>
        <path fill="rgb(178,178,178)" stroke="none" d="M 5068,3217 L 2341,3217 2341,1045 7794,1045 7794,3217 5068,3217 Z"/>
       </g>
      </g>
      <g class="com.sun.star.drawing.CustomShape">
       <g id="id16">
        <rect class="BoundingBox" stroke="none" fill="none" x="2341" y="2993" width="5454" height="224"/>
        <path fill="rgb(102,102,102)" stroke="none" d="M 5068,3216 L 2341,3216 2341,2993 7794,2993 7794,3216 5068,3216 Z"/>
       </g>
      </g>
      <g class="com.sun.star.drawing.CustomShape">
       <g id="id17">
        <rect class="BoundingBox" stroke="none" fill="none" x="7553" y="1044" width="244" height="2174"/>
        <path fill="rgb(102,102,102)" stroke="none" d="M 7563,2131 L 7553,1046 7776,1044 7795,3215 7572,3217 7563,2131 Z"/>
       </g>
      </g>
      <g class="com.sun.star.drawing.CustomShape">
       <g id="id18">
        <rect class="BoundingBox" stroke="none" fill="none" x="2253" y="964" width="5623" height="2338"/>
        <path fill="none" stroke="rgb(255,255,255)" stroke-width="159" stroke-linejoin="round" d="M 5064,3221 L 2333,3221 2333,1044 7795,1044 7795,3221 5064,3221 Z"/>
       </g>
      </g>
      <g class="com.sun.star.drawing.LineShape">
       <g id="id19">
        <rect class="BoundingBox" stroke="none" fill="none" x="6350" y="1431" width="161" height="1406"/>
        <path fill="none" stroke="rgb(0,0,0)" stroke-width="159" stroke-linejoin="round" stroke-linecap="round" d="M 6430,1511 L 6430,2756"/>
       </g>
      </g>
      <g class="com.sun.star.drawing.LineShape">
       <g id="id20">
        <rect class="BoundingBox" stroke="none" fill="none" x="6653" y="1431" width="161" height="1406"/>
        <path fill="none" stroke="rgb(0,0,0)" stroke-width="159" stroke-linejoin="round" stroke-linecap="round" d="M 6733,1511 L 6733,2756"/>
       </g>
      </g>
      <g class="com.sun.star.drawing.LineShape">
       <g id="id21">
        <rect class="BoundingBox" stroke="none" fill="none" x="6956" y="1431" width="161" height="1406"/>
        <path fill="none" stroke="rgb(0,0,0)" stroke-width="159" stroke-linejoin="round" stroke-linecap="round" d="M 7036,1511 L 7036,2756"/>
       </g>
      </g>
      <g class="com.sun.star.drawing.LineShape">
       <g id="id22">
        <rect class="BoundingBox" stroke="none" fill="none" x="2646" y="1991" width="587" height="284"/>
        <path fill="none" stroke="rgb(255,0,0)" stroke-width="282" stroke-linejoin="round" stroke-linecap="round" d="M 2788,2133 L 3091,2133"/>
       </g>
      </g>
      <g class="com.sun.star.drawing.LineShape">
       <g id="id23">
        <rect class="BoundingBox" stroke="none" fill="none" x="3254" y="1991" width="587" height="284"/>
        <path fill="none" stroke="rgb(129,212,26)" stroke-width="282" stroke-linejoin="round" stroke-linecap="round" d="M 3395,2133 L 3699,2133"/>
       </g>
      </g>
      <g class="com.sun.star.drawing.LineShape">
       <g id="id24">
        <rect class="BoundingBox" stroke="none" fill="none" x="3860" y="1991" width="587" height="284"/>
        <path fill="none" stroke="rgb(42,96,153)" stroke-width="282" stroke-linejoin="round" stroke-linecap="round" d="M 4002,2133 L 4305,2133"/>
       </g>
      </g>
      <g class="com.sun.star.drawing.CustomShape">
       <g id="id25">
        <rect class="BoundingBox" stroke="none" fill="none" x="2341" y="6777" width="5454" height="2173"/>
        <path fill="rgb(178,178,178)" stroke="none" d="M 5068,8949 L 2341,8949 2341,6777 7794,6777 7794,8949 5068,8949 Z"/>
       </g>
      </g>
      <g class="com.sun.star.drawing.CustomShape">
       <g id="id26">
        <rect class="BoundingBox" stroke="none" fill="none" x="2341" y="8725" width="5454" height="224"/>
        <path fill="rgb(102,102,102)" stroke="none" d="M 5068,8948 L 2341,8948 2341,8725 7794,8725 7794,8948 5068,8948 Z"/>
       </g>
      </g>
      <g class="com.sun.star.drawing.CustomShape">
       <g id="id27">
        <rect class="BoundingBox" stroke="none" fill="none" x="7553" y="6776" width="244" height="2174"/>
        <path fill="rgb(102,102,102)" stroke="none" d="M 7563,7863 L 7553,6778 7776,6776 7795,8947 7572,8949 7563,7863 Z"/>
       </g>
      </g>
      <g class="com.sun.star.drawing.CustomShape">
       <g id="id28">
        <rect class="BoundingBox" stroke="none" fill="none" x="2253" y="6696" width="5623" height="2338"/>
        <path fill="none" stroke="rgb(255,255,255)" stroke-width="159" stroke-linejoin="round" d="M 5064,8953 L 2333,8953 2333,6776 7795,6776 7795,8953 5064,8953 Z"/>
       </g>
      </g>
      <g class="com.sun.star.drawing.LineShape">
       <g id="id29">
        <rect class="BoundingBox" stroke="none" fill="none" x="6350" y="7163" width="161" height="1406"/>
        <path fill="none" stroke="rgb(0,0,0)" stroke-width="159" stroke-linejoin="round" stroke-linecap="round" d="M 6430,7243 L 6430,8488"/>
       </g>
      </g>
      <g class="com.sun.star.drawing.LineShape">
       <g id="id30">
        <rect class="BoundingBox" stroke="none" fill="none" x="6653" y="7163" width="161" height="1406"/>
        <path fill="none" stroke="rgb(0,0,0)" stroke-width="159" stroke-linejoin="round" stroke-linecap="round" d="M 6733,7243 L 6733,8488"/>
       </g>
      </g>
      <g class="com.sun.star.drawing.LineShape">
       <g id="id31">
        <rect class="BoundingBox" stroke="none" fill="none" x="6956" y="7163" width="161" height="1406"/>
        <path fill="none" stroke="rgb(0,0,0)" stroke-width="159" stroke-linejoin="round" stroke-linecap="round" d="M 7036,7243 L 7036,8488"/>
       </g>
      </g>
      <g class="com.sun.star.drawing.LineShape">
       <g id="id32">
        <rect class="BoundingBox" stroke="none" fill="none" x="2646" y="7723" width="587" height="284"/>
        <path fill="none" stroke="rgb(255,0,0)" stroke-width="282" stroke-linejoin="round" stroke-linecap="round" d="M 2788,7865 L 3091,7865"/>
       </g>
      </g>
      <g class="com.sun.star.drawing.LineShape">
       <g id="id33">
        <rect class="BoundingBox" stroke="none" fill="none" x="3254" y="7723" width="587" height="284"/>
        <path fill="none" stroke="rgb(129,212,26)" stroke-width="282" stroke-linejoin="round" stroke-linecap="round" d="M 3395,7865 L 3699,7865"/>
       </g>
      </g>
      <g class="com.sun.star.drawing.LineShape">
       <g id="id34">
        <rect class="BoundingBox" stroke="none" fill="none" x="3860" y="7723" width="587" height="284"/>
        <path fill="none" stroke="rgb(42,96,153)" stroke-width="282" stroke-linejoin="round" stroke-linecap="round" d="M 4002,7865 L 4305,7865"/>
       </g>
      </g>
     </g>
    </g>
   </g>
  </g>
 </g>
</svg>